<?xml version="1.0" encoding="UTF-8"?>
<svg version="1.1" xmlns="http://www.w3.org/2000/svg" width="1024" height="1024">
<path d="M0 0 C5.08091217 1.2856592 10.19162011 2.43564926 15.3046875 3.58544922 C16.21573242 3.79218262 17.12677734 3.99891602 18.06542969 4.21191406 C19.7161816 4.58520125 21.36773705 4.954962 23.02026367 5.3203125 C24.53653681 5.65766644 26.04875954 6.01332545 27.55859375 6.37841797 C32.45095838 7.15170252 37.42573437 7.17994664 42.36914062 7.37841797 C43.19736328 7.41580078 44.02558594 7.45318359 44.87890625 7.49169922 C46.00945435 7.53713867 46.00945435 7.53713867 47.1628418 7.58349609 C49.0546875 7.77294922 49.0546875 7.77294922 51.0546875 8.77294922 C50.70221584 11.54410568 50.22419001 12.61390983 48.15625 14.55419922 C41.6178061 19.09192054 34.26294244 23.77294922 26.0546875 23.77294922 C26.0546875 24.43294922 26.0546875 25.09294922 26.0546875 25.77294922 C26.7146875 25.77294922 27.3746875 25.77294922 28.0546875 25.77294922 C28.0546875 26.43294922 28.0546875 27.09294922 28.0546875 27.77294922 C28.7146875 27.77294922 29.3746875 27.77294922 30.0546875 27.77294922 C30.0546875 28.43294922 30.0546875 29.09294922 30.0546875 29.77294922 C30.7146875 29.77294922 31.3746875 29.77294922 32.0546875 29.77294922 C43.63509217 41.77763596 52.15926916 56.71454693 59.0546875 71.77294922 C59.38710449 72.48902344 59.71952148 73.20509766 60.06201172 73.94287109 C68.03345235 91.29763987 73.08087196 109.43995146 77.0546875 128.08544922 C77.38472778 129.62495239 77.38472778 129.62495239 77.72143555 131.19555664 C78.01014526 132.62025269 78.01014526 132.62025269 78.3046875 134.07373047 C78.47484375 134.91073486 78.645 135.74773926 78.8203125 136.61010742 C79.0546875 138.77294922 79.0546875 138.77294922 78.0546875 141.77294922 C74.60133419 140.31809971 72.66609381 138.48159937 70.2421875 135.64794922 C69.18451172 134.42785156 69.18451172 134.42785156 68.10546875 133.18310547 C66.89129655 131.75616404 65.67941706 130.32725765 64.47265625 128.89404297 C54.46519821 117.16378203 43.27866297 105.98930622 30.484375 97.33154297 C29.88310791 96.92460205 29.28184082 96.51766113 28.66235352 96.09838867 C27.48820082 95.31322496 26.3065766 94.53909256 25.11694336 93.77758789 C23.51171875 92.71826172 23.51171875 92.71826172 21.0546875 90.77294922 C21.0546875 89.78294922 21.0546875 88.79294922 21.0546875 87.77294922 C27.77776949 88.27443785 33.23855202 90.17285414 39.4296875 92.77294922 C40.33074219 93.14162109 41.23179687 93.51029297 42.16015625 93.89013672 C48.48772321 96.48946708 48.48772321 96.48946708 51.0546875 97.77294922 C48.71656146 90.10909164 45.63776154 82.93528754 42.0546875 75.77294922 C41.73226074 75.12841797 41.40983398 74.48388672 41.07763672 73.81982422 C35.95931725 63.77302309 30.13537315 55.6304764 22.0546875 47.77294922 C21.2915625 47.02400391 20.5284375 46.27505859 19.7421875 45.50341797 C7.29438832 33.87806267 -8.59319757 25.27851989 -25.9453125 25.77294922 C-26.74066406 25.78970703 -27.53601563 25.80646484 -28.35546875 25.82373047 C-30.77169321 26.01347015 -30.77169321 26.01347015 -33.9453125 27.77294922 C-35.50745518 30.2215971 -36.65144949 32.69135215 -37.796875 35.35888672 C-39.99521018 39.979877 -43.51988428 41.56023511 -47.9453125 43.77294922 C-43.3253125 43.77294922 -38.7053125 43.77294922 -33.9453125 43.77294922 C-34.2753125 45.09294922 -34.6053125 46.41294922 -34.9453125 47.77294922 C-40.40121222 50.90718948 -45.73502077 51.41057807 -51.9453125 51.77294922 C-51.26984375 52.41361328 -50.594375 53.05427734 -49.8984375 53.71435547 C-40.48858343 62.83865038 -40.48858343 62.83865038 -37.9453125 68.77294922 C-38.4403125 70.25794922 -38.4403125 70.25794922 -38.9453125 71.77294922 C-39.7909375 71.48419922 -40.6365625 71.19544922 -41.5078125 70.89794922 C-49.07533574 68.4065291 -49.07533574 68.4065291 -56.9453125 67.77294922 C-56.36523438 68.14806641 -55.78515625 68.52318359 -55.1875 68.90966797 C-43.38802354 76.63968803 -34.72619173 85.49142778 -31.2578125 99.56201172 C-30.77132677 101.96065663 -30.32880833 104.35591626 -29.9453125 106.77294922 C-31.2653125 106.77294922 -32.5853125 106.77294922 -33.9453125 106.77294922 C-36.13671875 104.42919922 -36.13671875 104.42919922 -38.5078125 101.27294922 C-43.26994522 95.16393237 -48.41370647 90.99489989 -54.9453125 86.77294922 C-54.43871094 87.71654297 -54.43871094 87.71654297 -53.921875 88.67919922 C-53.47585938 89.53513672 -53.02984375 90.39107422 -52.5703125 91.27294922 C-52.12945312 92.10826172 -51.68859375 92.94357422 -51.234375 93.80419922 C-48.37753398 100.38359065 -47.61987772 106.44465263 -47.6953125 113.52294922 C-47.68371094 114.63476562 -47.68371094 114.63476562 -47.671875 115.76904297 C-47.68556308 119.5811734 -47.80362147 122.54341513 -49.9453125 125.77294922 C-50.6053125 125.77294922 -51.2653125 125.77294922 -51.9453125 125.77294922 C-52.25984375 124.71076172 -52.574375 123.64857422 -52.8984375 122.55419922 C-55.08158798 115.30500909 -57.21491839 108.40476097 -60.9453125 101.77294922 C-61.2753125 101.77294922 -61.6053125 101.77294922 -61.9453125 101.77294922 C-61.89890625 102.68173828 -61.8525 103.59052734 -61.8046875 104.52685547 C-61.52563405 114.24389534 -62.96673397 122.46924596 -65.9453125 131.77294922 C-66.19152344 132.54783691 -66.43773437 133.32272461 -66.69140625 134.12109375 C-66.95050781 134.93562012 -67.20960938 135.75014648 -67.4765625 136.58935547 C-67.74001465 137.41854492 -68.0034668 138.24773437 -68.27490234 139.10205078 C-68.78806969 140.70424177 -69.30869199 142.3040732 -69.83837891 143.90087891 C-73.09415885 153.8766746 -74.30595758 163.14856059 -74.2578125 173.64794922 C-74.25652344 174.81946533 -74.25523437 175.99098145 -74.25390625 177.19799805 C-74.14077752 187.58533641 -72.8969047 197.58517325 -70.9453125 207.77294922 C-71.9353125 207.77294922 -72.9253125 207.77294922 -73.9453125 207.77294922 C-85.17985953 192.2874925 -90.71228792 173.25630565 -88.671875 154.22216797 C-86.9952769 143.79878921 -83.61915189 133.55337571 -80.1953125 123.58544922 C-76.25520101 111.89867784 -77.19488754 99.6517962 -81.9765625 88.33154297 C-86.26538788 80.00020988 -92.32839489 72.67494965 -100.9453125 68.77294922 C-104.39375859 67.93980805 -107.70610338 67.60145486 -111.24609375 67.45654297 C-112.22255859 67.41464844 -113.19902344 67.37275391 -114.20507812 67.32958984 C-115.21248047 67.29027344 -116.21988281 67.25095703 -117.2578125 67.21044922 C-118.79791992 67.14567383 -118.79791992 67.14567383 -120.36914062 67.07958984 C-122.89440819 66.97388097 -125.41976812 66.87178454 -127.9453125 66.77294922 C-128.24872559 67.37977539 -128.55213867 67.98660156 -128.86474609 68.61181641 C-130.89160156 72.66552734 -132.91845703 76.71923828 -134.9453125 80.77294922 C-137.83355927 79.74359502 -138.77985869 79.10385684 -140.17578125 76.31201172 C-140.64951172 74.86955078 -140.64951172 74.86955078 -141.1328125 73.39794922 C-141.45636719 72.44146484 -141.77992188 71.48498047 -142.11328125 70.49951172 C-145.46150445 59.5274 -144.4063971 49.34891614 -139.9453125 38.77294922 C-138.2604058 35.73602013 -136.33485073 33.28571475 -133.9453125 30.77294922 C-132.99011719 29.7578125 -132.99011719 29.7578125 -132.015625 28.72216797 C-126.82648463 23.6755864 -121.5108506 20.95746845 -114.765625 18.39013672 C-111.2325241 16.36423122 -110.47652243 14.4805959 -108.9453125 10.77294922 C-101.91397145 0.22593764 -88.84321366 -3.21356908 -77.0625 -5.87939453 C-51.03501285 -10.95883291 -25.35084419 -6.55358424 0 0 Z M-80.9453125 14.77294922 C-83.1953125 15.46044922 -83.1953125 15.46044922 -84.9453125 15.77294922 C-83.6253125 13.46294922 -82.3053125 11.15294922 -80.9453125 8.77294922 C-88.43671858 10.69257928 -88.43671858 10.69257928 -93.9453125 15.77294922 C-93.86798673 18.32469967 -93.24465035 19.41173675 -91.62719727 21.36352539 C-89.16468119 23.42712029 -86.78503592 23.28492366 -83.67529297 23.17773438 C-78.02947998 22.34060703 -72.80756645 20.0038047 -67.5078125 17.96044922 C-53.84153252 12.8665876 -40.53260748 10.65657956 -25.9453125 9.77294922 C-26.4403125 8.78294922 -26.4403125 8.78294922 -26.9453125 7.77294922 C-29.9637817 7.2878381 -32.90656833 6.92669117 -35.9453125 6.64794922 C-37.18474609 6.51839844 -37.18474609 6.51839844 -38.44921875 6.38623047 C-53.23628104 4.92835109 -68.66949572 5.43713898 -80.9453125 14.77294922 Z M-56.1328125 25.27294922 C-56.78701172 25.60681641 -57.44121094 25.94068359 -58.11523438 26.28466797 C-59.7280189 27.10871846 -61.33703809 27.94013077 -62.9453125 28.77294922 C-61.57547747 31.93410697 -60.9562487 32.76565842 -57.9453125 34.77294922 C-53.30604208 34.77294922 -51.4650925 34.24849263 -48.0078125 31.08544922 C-45.79682783 27.53447385 -45.45866054 25.86082572 -45.9453125 21.77294922 C-49.91832585 21.77294922 -52.69174001 23.48511015 -56.1328125 25.27294922 Z M-124.92578125 35.58935547 C-130.45040253 41.42024574 -134.1520193 48.2299661 -134.1953125 56.39794922 C-134.1128125 57.51169922 -134.0303125 58.62544922 -133.9453125 59.77294922 C-132.5221875 58.41169922 -132.5221875 58.41169922 -131.0703125 57.02294922 C-121.26957628 48.63082084 -109.34813277 48.58615685 -97.03930664 48.58764648 C-95.01622517 48.58545832 -92.99368866 48.56725084 -90.97070312 48.54833984 C-84.28068005 48.5383597 -78.33078114 48.70970073 -71.9453125 50.77294922 C-72.4403125 53.24794922 -72.4403125 53.24794922 -72.9453125 55.77294922 C-70.6353125 55.44294922 -68.3253125 55.11294922 -65.9453125 54.77294922 C-71.08914553 47.05719968 -80.39046829 44.37118946 -88.9453125 41.77294922 C-89.9353125 41.77294922 -90.9253125 41.77294922 -91.9453125 41.77294922 C-92.12707031 41.18126953 -92.30882812 40.58958984 -92.49609375 39.97998047 C-94.91297411 31.94002051 -94.91297411 31.94002051 -100.5078125 25.96044922 C-108.54133368 22.04668249 -119.22792075 30.36350708 -124.92578125 35.58935547 Z M-101.9453125 55.77294922 C-102.6053125 56.43294922 -103.2653125 57.09294922 -103.9453125 57.77294922 C-98.6653125 58.76294922 -93.3853125 59.75294922 -87.9453125 60.77294922 C-87.2853125 59.45294922 -86.6253125 58.13294922 -85.9453125 56.77294922 C-83.34375 56.16357422 -83.34375 56.16357422 -80.3203125 56.02294922 C-79.31742188 55.96623047 -78.31453125 55.90951172 -77.28125 55.85107422 C-76.12496094 55.81240234 -76.12496094 55.81240234 -74.9453125 55.77294922 C-74.9453125 55.44294922 -74.9453125 55.11294922 -74.9453125 54.77294922 C-84.16989693 53.50177743 -92.84810318 53.78366176 -101.9453125 55.77294922 Z " fill="#FEFEFD" transform="translate(543.9453125,348.22705078125)"/>
<path d="M0 0 C0.99 0.33 1.98 0.66 3 1 C1.07396324 6.48098272 -1.16055985 11.36284254 -4.09765625 16.36328125 C-8.72520919 24.41831576 -13.02896694 32.61681334 -17.25952148 40.88598633 C-18.45733167 43.22624677 -19.66098285 45.56343927 -20.86523438 47.90039062 C-21.63836074 49.40607552 -22.41115992 50.91192847 -23.18359375 52.41796875 C-23.53876572 53.10755173 -23.89393768 53.7971347 -24.25987244 54.50761414 C-26.02751764 57.97009591 -27.55199568 61.3799892 -29 65 C-16.13 65.495 -16.13 65.495 -3 66 C-3.98599318 69.94397272 -4.43126455 70.81515162 -7.08984375 73.56640625 C-7.70923828 74.21673828 -8.32863281 74.86707031 -8.96679688 75.53710938 C-9.94229492 76.53967773 -9.94229492 76.53967773 -10.9375 77.5625 C-12.21926908 78.89538649 -13.49928967 80.22995717 -14.77734375 81.56640625 C-15.34702881 82.15365479 -15.91671387 82.74090332 -16.50366211 83.34594727 C-18.19693578 85.13632439 -18.19693578 85.13632439 -20 88 C-20.66 88 -21.32 88 -22 88 C-22.23332031 88.56203125 -22.46664062 89.1240625 -22.70703125 89.703125 C-24.31937076 92.56734142 -26.3193562 94.47252021 -28.6875 96.75 C-32.38359547 100.31388677 -35.79349994 104.01660818 -39.15014648 107.89404297 C-42.2387768 111.41027962 -45.46655067 114.79285074 -48.6875 118.1875 C-50.09680934 119.67925762 -51.50565905 121.17144958 -52.9140625 122.6640625 C-53.6040332 123.3952832 -54.29400391 124.12650391 -55.00488281 124.87988281 C-62.80735871 133.17120694 -70.61136819 141.48639287 -77.87109375 150.26171875 C-78.49113281 151.00035156 -79.11117188 151.73898437 -79.75 152.5 C-80.57757813 153.50546875 -80.57757813 153.50546875 -81.421875 154.53125 C-83 156 -83 156 -86 156 C-85.41308576 152.01695195 -84.17596483 149.20283083 -82.12109375 145.75390625 C-81.53328125 144.75834717 -80.94546875 143.76278809 -80.33984375 142.73706055 C-79.39818359 141.16565308 -79.39818359 141.16565308 -78.4375 139.5625 C-77.15455023 137.39346434 -75.87199592 135.22419473 -74.58984375 133.0546875 C-73.96964355 132.01022461 -73.34944336 130.96576172 -72.71044922 129.88964844 C-67.83294937 121.64955591 -63.14282407 113.30814724 -58.5859375 104.88671875 C-55.46904002 99.21335117 -52.22348862 93.61331639 -49 88 C-61.87 87.505 -61.87 87.505 -75 87 C-75 83 -75 83 -73.49609375 81.140625 C-72.81675781 80.51671875 -72.13742187 79.8928125 -71.4375 79.25 C-68.74456997 76.68866166 -66.16742522 74.1358139 -63.75 71.3125 C-60.58230236 67.62896169 -57.30465981 64.06007528 -54 60.5 C-50.78823993 57.03729049 -47.5889648 53.5735083 -44.5 50 C-40.89917386 45.83433839 -37.14609026 41.81399952 -33.40234375 37.77734375 C-30.16990824 34.28566529 -27.00764154 30.74665788 -23.8984375 27.14453125 C-21.8679626 24.85084665 -19.78631973 22.61157986 -17.6965332 20.37207031 C-12.45628338 14.75490023 -7.45289621 9.04216969 -2.64453125 3.046875 C-1 1 -1 1 0 0 Z " fill="#FEFEFD" transform="translate(564,410)"/>
<path d="M0 0 C4.071006 -0.05009283 8.14188832 -0.08604089 12.21313477 -0.10986328 C13.59304944 -0.11981266 14.97294365 -0.13337705 16.3527832 -0.15087891 C29.4904465 -0.3131312 42.03938916 -0.29486581 52.1953125 9.01171875 C59.06266694 16.27185546 62.17663781 22.38295701 62.5 32.4375 C62.17001749 42.75976525 59.26462838 49.61937285 52.13671875 57.08984375 C42.67335981 65.54977524 30.26516756 65.30595158 18.27685547 65.20581055 C15.97742862 65.18731848 13.67840041 65.18530292 11.37890625 65.18554688 C9.91926732 65.18063916 8.45963113 65.17481414 7 65.16796875 C6.31156006 65.16685593 5.62312012 65.1657431 4.91381836 65.16459656 C0.1161316 65.1161316 0.1161316 65.1161316 -1 64 C-1.13390424 62.1505362 -1.19902229 60.29605339 -1.23706055 58.44213867 C-1.26346115 57.25387985 -1.28986176 56.06562103 -1.31706238 54.84135437 C-1.34004898 53.54663712 -1.36303558 52.25191986 -1.38671875 50.91796875 C-1.41236752 49.58376309 -1.43815155 48.24956003 -1.46406555 46.9153595 C-1.51711449 44.1134651 -1.56602293 41.31153139 -1.61254883 38.50952148 C-1.67280986 34.92135228 -1.74704697 31.33362336 -1.82492352 27.74579906 C-1.88258496 24.98780603 -1.93085457 22.22970636 -1.976511 19.47149086 C-2.01126668 17.50603345 -2.05545994 15.54075029 -2.09977722 13.57548523 C-2.11672134 12.37776993 -2.13366547 11.18005463 -2.15112305 9.94604492 C-2.17031296 8.89205002 -2.18950287 7.83805511 -2.20927429 6.75212097 C-1.9979326 3.97281205 -1.43539612 2.35964643 0 0 Z M14 14 C14 26.21 14 38.42 14 51 C28.27949559 52.66644494 28.27949559 52.66644494 40.5625 46.6875 C44.11789354 43.3982066 45.65302175 40.20197737 46.40625 35.421875 C46.62686177 29.13443967 45.77474893 24.90682005 41.8671875 19.8828125 C38.30860578 16.29445186 36.04236289 15.39728128 31 14 C25.39 14 19.78 14 14 14 Z " fill="#FDFEFD" transform="translate(310,632)"/>
<path d="M0 0 C1.1859375 0.00257813 2.371875 0.00515625 3.59375 0.0078125 C4.7796875 0.00523437 5.965625 0.00265625 7.1875 0 C10.09375 0.1328125 10.09375 0.1328125 11.09375 1.1328125 C11.18044432 2.6215311 11.20078494 4.1142575 11.19140625 5.60546875 C11.18818359 6.50458984 11.18496094 7.40371094 11.18164062 8.33007812 C11.17326172 9.27560547 11.16488281 10.22113281 11.15625 11.1953125 C11.15173828 12.14470703 11.14722656 13.09410156 11.14257812 14.07226562 C11.1307511 16.42584315 11.11427025 18.77929727 11.09375 21.1328125 C11.77179688 20.83246094 12.44984375 20.53210938 13.1484375 20.22265625 C20.73326714 17.12359151 26.44410913 16.25966954 34.28515625 18.859375 C40.69988507 21.65897202 45.08894196 26.40884035 47.96875 32.7578125 C50.19772881 39.5641585 49.93395656 47.11795367 48.03125 53.9453125 C43.53611075 61.34054158 38.72959628 66.93259689 30.09375 69.1328125 C22.50412391 70.1857086 16.74989645 68.81423671 10.09375 65.1328125 C9.76375 66.1228125 9.43375 67.1128125 9.09375 68.1328125 C7.11465602 68.15967803 5.13546029 68.17914625 3.15625 68.1953125 C2.05410156 68.20691406 0.95195312 68.21851563 -0.18359375 68.23046875 C-2.90625 68.1328125 -2.90625 68.1328125 -3.90625 67.1328125 C-4.00564626 65.08268404 -4.03424553 63.02909858 -4.03564453 60.9765625 C-4.03879669 59.65849609 -4.04194885 58.34042969 -4.04519653 56.98242188 C-4.04340675 55.53255175 -4.0413558 54.08268192 -4.0390625 52.6328125 C-4.03973557 51.15690088 -4.04070563 49.68098937 -4.04196167 48.20507812 C-4.04343848 45.10806221 -4.04128464 42.01107508 -4.03662109 38.9140625 C-4.0309238 34.93572701 -4.0342029 30.95745898 -4.04019356 26.97912598 C-4.04379963 23.93033333 -4.04266037 20.88155679 -4.04006577 17.83276367 C-4.03939662 16.36547844 -4.04022447 14.89819176 -4.04254532 13.4309082 C-4.04507257 11.38362657 -4.0405406 9.33633984 -4.03564453 7.2890625 C-4.03484894 6.12181641 -4.03405334 4.95457031 -4.03323364 3.75195312 C-3.85427328 0.06075046 -3.72687678 0.17031426 0 0 Z M12.09375 36.1328125 C10.47988473 40.97440831 10.25758513 45.34103063 12.40625 49.9453125 C15.17717734 53.82213103 15.17717734 53.82213103 19.3984375 55.56640625 C23.6176817 55.57281848 26.35588625 55.54786086 30.09375 53.4453125 C32.69596671 50.43649943 34.0981091 48.27748818 34.08984375 44.2109375 C33.70760342 39.88430225 32.85198023 36.60613945 30.09375 33.1328125 C27.12327386 30.82244217 23.84202277 30.65890264 20.12890625 30.7421875 C16.43583047 31.45103122 14.65731018 33.44420061 12.09375 36.1328125 Z " fill="#FEFEFD" transform="translate(445.90625,628.8671875)"/>
<path d="M0 0 C5.30285493 5.58949574 6.30039727 10.6135412 6.1953125 18.14453125 C6.1924826 18.91431808 6.18965271 19.68410492 6.18673706 20.47721863 C6.17559157 22.92247425 6.15049781 25.36735612 6.125 27.8125 C6.1149629 29.47590615 6.10583833 31.13931807 6.09765625 32.80273438 C6.07567073 36.86863237 6.04118014 40.93425294 6 45 C3.25494537 46.37252731 0.99672588 46.13229255 -2.0625 46.125 C-3.68865234 46.12886719 -3.68865234 46.12886719 -5.34765625 46.1328125 C-8 46 -8 46 -9 45 C-9.13404351 43.07192266 -9.2035871 41.13929497 -9.24609375 39.20703125 C-9.27896484 38.01916016 -9.31183594 36.83128906 -9.34570312 35.60742188 C-9.40642664 33.09708588 -9.46377246 30.58666568 -9.51757812 28.07617188 C-9.55173828 26.88185547 -9.58589844 25.68753906 -9.62109375 24.45703125 C-9.6461499 23.36366455 -9.67120605 22.27029785 -9.69702148 21.14379883 C-10.02049511 17.78733642 -10.6744038 15.09973166 -12 12 C-15.94891352 9.36739099 -18.65701398 9.80475117 -23.25 10.1875 C-25.21752559 10.88189893 -25.21752559 10.88189893 -26.08789062 13.1418457 C-27.12694051 16.39777639 -27.28746098 19.12753533 -27.34375 22.54296875 C-27.38822266 24.40018555 -27.38822266 24.40018555 -27.43359375 26.29492188 C-27.47806444 28.90168931 -27.52233349 31.50846019 -27.56640625 34.11523438 C-27.61087891 35.96665039 -27.61087891 35.96665039 -27.65625 37.85546875 C-27.67494141 38.98621826 -27.69363281 40.11696777 -27.71289062 41.28198242 C-28 44 -28 44 -30 46 C-32.75 46.265625 -32.75 46.265625 -36 46.25 C-37.60875 46.25773438 -37.60875 46.25773438 -39.25 46.265625 C-42 46 -42 46 -44 44 C-44.25396729 42.02661133 -44.25396729 42.02661133 -44.25878906 39.58203125 C-44.26509338 38.66768311 -44.27139771 37.75333496 -44.27789307 36.8112793 C-44.2738446 35.82168213 -44.26979614 34.83208496 -44.265625 33.8125 C-44.26753845 32.79905518 -44.2694519 31.78561035 -44.27142334 30.74145508 C-44.27278591 28.59618888 -44.26908447 26.45091447 -44.26074219 24.30566406 C-44.25004382 21.01348428 -44.26063519 17.72185022 -44.2734375 14.4296875 C-44.27211592 12.34895712 -44.26955355 10.26822709 -44.265625 8.1875 C-44.26967346 7.19790283 -44.27372192 6.20830566 -44.27789307 5.1887207 C-44.27158875 4.27437256 -44.26528442 3.36002441 -44.25878906 2.41796875 C-44.25719788 1.61125732 -44.25560669 0.8045459 -44.25396729 -0.02661133 C-44 -2 -44 -2 -42 -4 C-39.25 -4.30078125 -39.25 -4.30078125 -36 -4.3125 C-34.9275 -4.32925781 -33.855 -4.34601562 -32.75 -4.36328125 C-31.8425 -4.24339844 -30.935 -4.12351562 -30 -4 C-29.34 -3.01 -28.68 -2.02 -28 -1 C-27.113125 -1.474375 -26.22625 -1.94875 -25.3125 -2.4375 C-16.64820444 -6.52443187 -7.73912571 -5.57217051 0 0 Z " fill="#FDFEFD" transform="translate(608,651)"/>
<path d="M0 0 C3.85801338 3.47221204 6.59727873 7.09682933 7.5 12.25 C7.59477555 14.85704278 7.64014164 17.43632756 7.6328125 20.04296875 C7.63376923 20.78960281 7.63472595 21.53623688 7.63571167 22.30549622 C7.63639044 23.87806279 7.63455729 25.45063221 7.63037109 27.02319336 C7.62499588 29.43935356 7.63033784 31.85532977 7.63671875 34.27148438 C7.63605836 35.79947958 7.63477801 37.32747467 7.6328125 38.85546875 C7.63483673 39.58146774 7.63686096 40.30746674 7.63894653 41.0554657 C7.61496698 46.13503302 7.61496698 46.13503302 6.5 47.25 C4.48035801 47.32244053 2.45832876 47.33377188 0.4375 47.3125 C-1.21958984 47.29896484 -1.21958984 47.29896484 -2.91015625 47.28515625 C-3.76480469 47.27355469 -4.61945312 47.26195312 -5.5 47.25 C-5.83 46.26 -6.16 45.27 -6.5 44.25 C-7.02207031 44.53875 -7.54414062 44.8275 -8.08203125 45.125 C-14.89343935 48.56052633 -21.38961938 49.77115008 -28.8359375 47.5546875 C-33.54893062 45.46975746 -36.22607222 42.97976979 -38.5 38.25 C-39.91578224 33.78982328 -39.86125381 30.31618341 -38 26 C-35.56921749 21.73355759 -32.97978597 20.18094223 -28.5 18.25 C-23.86446807 17.24342735 -19.34731773 17.12801344 -14.625 17.1875 C-13.59246094 17.19426758 -13.59246094 17.19426758 -12.5390625 17.20117188 C-10.85933665 17.21283664 -9.17965625 17.23076729 -7.5 17.25 C-9.25454385 14.06765895 -9.25454385 14.06765895 -11.5 11.25 C-13.41352846 11.12380104 -15.33235023 11.07419299 -17.25 11.0625 C-18.29671875 11.04832031 -19.3434375 11.03414062 -20.421875 11.01953125 C-23.53407232 11.2525511 -25.66615239 12.00587178 -28.5 13.25 C-30.625 13.1875 -30.625 13.1875 -32.5 12.25 C-35.12334906 8.87712264 -35.86372697 6.49348127 -35.5 2.25 C-24.39752654 -4.15527315 -11.75918207 -5.87959103 0 0 Z M-23.5 29.25 C-23.7502157 32.16634129 -23.7502157 32.16634129 -23.5 35.25 C-19.74829892 37.75113406 -17.98406646 37.45081416 -13.66796875 36.859375 C-11.22033016 36.34033341 -11.22033016 36.34033341 -8.875 33.9375 C-7.3227488 30.90355447 -7.51368999 30.33386263 -8.5 27.25 C-10.24965358 27.19570041 -11.99979787 27.15707177 -13.75 27.125 C-14.72453125 27.10179687 -15.6990625 27.07859375 -16.703125 27.0546875 C-19.5196498 27.25137219 -21.10949036 27.80431084 -23.5 29.25 Z " fill="#FDFEFD" transform="translate(683.5,649.75)"/>
<path d="M0 0 C3.00390625 -0.328125 3.00390625 -0.328125 6.5625 -0.25 C8.32787109 -0.22679687 8.32787109 -0.22679687 10.12890625 -0.203125 C13 0 13 0 14 1 C14.13437308 3.17056943 14.2036619 5.34522049 14.24609375 7.51953125 C14.27904462 8.86524058 14.31225605 10.21094354 14.34570312 11.55664062 C14.39304227 13.68297755 14.43744059 15.809291 14.47680664 17.93579102 C14.51663761 19.98481993 14.56816824 22.03330453 14.62109375 24.08203125 C14.6461499 25.31155518 14.67120605 26.5410791 14.69702148 27.80786133 C14.98130732 30.80305655 15.33166979 32.53060501 17 35 C20.13871188 36.56935594 22.53855822 36.35201103 26 36 C29.15954305 33.45862841 30.71540886 31.85377341 32 28 C32.13869218 25.94785618 32.2250915 23.89199587 32.28125 21.8359375 C32.31863281 20.63195312 32.35601562 19.42796875 32.39453125 18.1875 C32.46505971 15.6380268 32.53537089 13.08854758 32.60546875 10.5390625 C32.64285156 9.33765625 32.68023437 8.13625 32.71875 6.8984375 C32.74904297 5.79161621 32.77933594 4.68479492 32.81054688 3.54443359 C33 1 33 1 34 0 C36.16480797 -0.0989294 38.33293785 -0.129711 40.5 -0.125 C41.6859375 -0.12757813 42.871875 -0.13015625 44.09375 -0.1328125 C47 0 47 0 48 1 C48.09311889 2.50418739 48.11746028 4.01271356 48.11352539 5.51977539 C48.11344986 6.48069595 48.11337433 7.44161652 48.11329651 8.43165588 C48.10813522 9.476436 48.10297394 10.52121613 48.09765625 11.59765625 C48.0962413 12.66165146 48.09482635 13.72564667 48.09336853 14.82188416 C48.08775064 18.23545083 48.07519511 21.648953 48.0625 25.0625 C48.05748731 27.37044176 48.052924 29.67838455 48.04882812 31.98632812 C48.0377754 37.65757426 48.02101987 43.32878253 48 49 C45.35541621 50.32229189 43.32238699 50.09677194 40.375 50.0625 C39.37210937 50.05347656 38.36921875 50.04445313 37.3359375 50.03515625 C36.56507813 50.02355469 35.79421875 50.01195312 35 50 C34.505 48.02 34.505 48.02 34 46 C33.09121094 46.54140625 33.09121094 46.54140625 32.1640625 47.09375 C25.0778997 51.01839401 19.47417724 52.48186327 11.546875 50.3359375 C5.9167028 48.19199776 2.6774908 45.37233035 0 40 C-2.26063455 32.20279383 -2.30013638 24.70531346 -2.25 16.625 C-2.25773437 15.35527344 -2.26546875 14.08554687 -2.2734375 12.77734375 C-2.27085937 11.56433594 -2.26828125 10.35132813 -2.265625 9.1015625 C-2.26336914 8.00150879 -2.26111328 6.90145508 -2.25878906 5.76806641 C-2 3 -2 3 0 0 Z " fill="#FDFEFD" transform="translate(382,647)"/>
<path d="M0 0 C1.17433594 -0.02578125 2.34867188 -0.0515625 3.55859375 -0.078125 C4.54988281 0.03015625 5.54117188 0.1384375 6.5625 0.25 C8.61992242 3.33613363 8.80401878 3.88488235 8.72265625 7.34765625 C8.71081299 8.14486084 8.69896973 8.94206543 8.68676758 9.76342773 C8.66638428 10.60462158 8.64600098 11.44581543 8.625 12.3125 C7.6426729 25.15096724 7.6426729 25.15096724 12.5625 36.25 C16.02050359 36.66673207 16.02050359 36.66673207 19.5625 36.25 C20.325625 36.20875 21.08875 36.1675 21.875 36.125 C23.8640607 35.3244094 23.8640607 35.3244094 24.64428711 32.61254883 C25.5925644 29.13990242 25.86210416 26.16729185 25.94140625 22.57421875 C25.97556641 21.33478516 26.00972656 20.09535156 26.04492188 18.81835938 C26.07134766 17.53767578 26.09777344 16.25699219 26.125 14.9375 C26.18462253 12.37880544 26.24819795 9.82019883 26.31640625 7.26171875 C26.34033447 6.13209717 26.3642627 5.00247559 26.38891602 3.83862305 C26.5625 1.25 26.5625 1.25 27.5625 0.25 C29.72730797 0.1510706 31.89543785 0.120289 34.0625 0.125 C35.2484375 0.12242187 36.434375 0.11984375 37.65625 0.1171875 C40.5625 0.25 40.5625 0.25 41.5625 1.25 C41.66081146 2.74870048 41.69048456 4.25198539 41.69189453 5.75390625 C41.69504669 6.71159912 41.69819885 7.66929199 41.70144653 8.65600586 C41.6994223 9.69764893 41.69739807 10.73929199 41.6953125 11.8125 C41.69626923 12.87412354 41.69722595 13.93574707 41.69821167 15.02954102 C41.69889364 17.27913472 41.69703819 19.52873037 41.69287109 21.77832031 C41.6875231 25.23507071 41.69281554 28.69169117 41.69921875 32.1484375 C41.69855797 34.32812529 41.69727682 36.507813 41.6953125 38.6875 C41.69733673 39.72914307 41.69936096 40.77078613 41.70144653 41.84399414 C41.69671829 43.28053345 41.69671829 43.28053345 41.69189453 44.74609375 C41.69109894 45.59357178 41.69030334 46.4410498 41.68948364 47.31420898 C41.5625 49.25 41.5625 49.25 40.5625 50.25 C38.58736333 50.40126231 36.60571865 50.47173766 34.625 50.5 C33.54347656 50.52578125 32.46195313 50.5515625 31.34765625 50.578125 C30.42855469 50.46984375 29.50945313 50.3615625 28.5625 50.25 C27.9025 49.26 27.2425 48.27 26.5625 47.25 C26.02882813 47.53875 25.49515625 47.8275 24.9453125 48.125 C18.41190329 51.38040113 12.41587788 52.81210269 5.29296875 50.51953125 C-0.36507124 47.94769489 -3.20007806 44.67315794 -6.02734375 39.13671875 C-8.31096297 32.90245962 -7.80915926 26.1491966 -7.71875 19.60229492 C-7.68724678 17.29394575 -7.67773735 14.98627847 -7.671875 12.67773438 C-7.66271731 11.21353325 -7.6523455 9.7493391 -7.640625 8.28515625 C-7.63637512 7.59357925 -7.63212524 6.90200226 -7.62774658 6.18946838 C-7.52856087 -0.36391076 -6.36054301 0.08359969 0 0 Z " fill="#FDFEFD" transform="translate(510.4375,646.75)"/>
<path d="M0 0 C1.76150391 -0.02126953 1.76150391 -0.02126953 3.55859375 -0.04296875 C6.5625 0.1875 6.5625 0.1875 8.5625 2.1875 C8.81646729 4.16088867 8.81646729 4.16088867 8.82128906 6.60546875 C8.82759338 7.51981689 8.83389771 8.43416504 8.84039307 9.3762207 C8.8363446 10.36581787 8.83229614 11.35541504 8.828125 12.375 C8.83003845 13.38844482 8.8319519 14.40188965 8.83392334 15.44604492 C8.83528591 17.59131112 8.83158447 19.73658553 8.82324219 21.88183594 C8.81254382 25.17401572 8.82313519 28.46564978 8.8359375 31.7578125 C8.83461592 33.83854288 8.83205355 35.91927291 8.828125 38 C8.83217346 38.98959717 8.83622192 39.97919434 8.84039307 40.9987793 C8.83408875 41.91312744 8.82778442 42.82747559 8.82128906 43.76953125 C8.81890228 44.97959839 8.81890228 44.97959839 8.81646729 46.21411133 C8.5625 48.1875 8.5625 48.1875 6.5625 50.1875 C3.55859375 50.41796875 3.55859375 50.41796875 0 50.375 C-1.76537109 50.36533203 -1.76537109 50.36533203 -3.56640625 50.35546875 C-6.4375 50.1875 -6.4375 50.1875 -7.4375 49.1875 C-7.53581146 47.68879952 -7.56548456 46.18551461 -7.56689453 44.68359375 C-7.57004669 43.72590088 -7.57319885 42.76820801 -7.57644653 41.78149414 C-7.5744223 40.73985107 -7.57239807 39.69820801 -7.5703125 38.625 C-7.57126923 37.56337646 -7.57222595 36.50175293 -7.57321167 35.40795898 C-7.57389364 33.15836528 -7.57203819 30.90876963 -7.56787109 28.65917969 C-7.5625231 25.20242929 -7.56781554 21.74580883 -7.57421875 18.2890625 C-7.57355797 16.10937471 -7.57227682 13.929687 -7.5703125 11.75 C-7.57233673 10.70835693 -7.57436096 9.66671387 -7.57644653 8.59350586 C-7.57329437 7.63581299 -7.57014221 6.67812012 -7.56689453 5.69140625 C-7.56609894 4.84392822 -7.56530334 3.9964502 -7.56448364 3.12329102 C-7.2794764 -1.22147687 -3.55708694 0.01948021 0 0 Z " fill="#FDFDFD" transform="translate(709.4375,646.8125)"/>
<path d="M0 0 C2.60059126 2.14548779 3.740231 3.63621272 4.375 6.96875 C4.57652588 10.34430848 4.26647112 12.58430505 2.4375 15.4375 C-0.80899889 17.51858903 -3.15247539 17.93249957 -7 18 C-10.57387602 16.41161066 -11.81089572 15.28365642 -14 12 C-14.46797583 7.78821757 -14.46565795 5.71400886 -12.125 2.125 C-8.35566845 -1.64433155 -4.96770024 -1.40391529 0 0 Z " fill="#FDFEFD" transform="translate(636,680)"/>
<path d="M0 0 C2.96045738 2.59040021 3.85478339 4.12870035 4.5 8 C3.8665852 11.8004888 2.82847039 13.39482991 0 16 C-3.91743149 17.39286453 -5.76298628 17.07505435 -9.75 15.8125 C-13 14 -13 14 -14.5 12.1875 C-15.20528098 9.10189572 -14.88520977 7.03500494 -14 4 C-9.81267432 -0.99777581 -6.28480109 -1.80098055 0 0 Z " fill="#FDFDFD" transform="translate(715,626)"/>
<path d="M0 0 C2.375 3.0625 2.375 3.0625 4 6 C3.01 7.32 2.02 8.64 1 10 C-4.36170213 9.40425532 -4.36170213 9.40425532 -6.875 7.8125 C-8.49664405 5.19985125 -8.20031953 3.00479298 -8 0 C-4.9637583 -1.51812085 -3.20988224 -0.96296467 0 0 Z " fill="#FDFEFD" transform="translate(442,378)"/>
<path d="M0 0 C3.5625 1.5 3.5625 1.5 6 3 C6 3.99 6 4.98 6 6 C0.06 6 -5.88 6 -12 6 C-12 4.68 -12 3.36 -12 2 C-7.95878094 -0.69414604 -4.74629425 -0.5569631 0 0 Z " fill="#FEFFFF" transform="translate(525,377)"/>
<path d="" fill="#FFFFFF" transform="translate(0,0)"/>
<path d="" fill="#FFFFFF" transform="translate(0,0)"/>
<path d="" fill="#FFFFFF" transform="translate(0,0)"/>
<path d="" fill="#FFFFFF" transform="translate(0,0)"/>
</svg>
